<svg xmlns="http://www.w3.org/2000/svg" width="32" height="32" viewBox="0 0 32 32"><defs><linearGradient id="bg" x1="0" x2="1" y1="0" y2="1"><stop offset="0%" stop-color="#0A84FF"/><stop offset="100%" stop-color="#5E5CE6"/></linearGradient><linearGradient id="cut" x1="0" x2="32" y1="0" y2="32" gradientUnits="userSpaceOnUse"><stop offset="0%" stop-color="#0A84FF"/><stop offset="100%" stop-color="#5E5CE6"/></linearGradient></defs><rect width="32" height="32" fill="url(#bg)" rx="7"/><circle cx="14.5" cy="8" r="2.2" fill="#fff" opacity=".55"/><g fill="#fff"><ellipse cx="15" cy="18" rx="8.5" ry="6.5"/><ellipse cx="22.5" cy="17" rx="3" ry="2.5"/><path d="M10.5 12.5 L9 7.5 L13 11.5Z"/><rect width="2.5" height="3" x="10" y="23.5" rx="1.2"/><rect width="2.5" height="3" x="18" y="23.5" rx="1.2"/></g><path fill="none" stroke="#fff" stroke-linecap="round" stroke-width="1.8" d="M6.5 16 C4 14 4.5 11 6.5 10"/><circle cx="19.5" cy="15.5" r="1.2" fill="url(#cut)"/><circle cx="24" cy="16.3" r=".7" fill="url(#cut)"/><circle cx="24" cy="18" r=".7" fill="url(#cut)"/><rect width="5" height="1.2" x="12" y="11.2" fill="url(#cut)" rx=".6"/></svg>